<?xml version="1.0" standalone="no"?><!DOCTYPE svg PUBLIC "-//W3C//DTD SVG 1.1//EN" "http://www.w3.org/Graphics/SVG/1.1/DTD/svg11.dtd" [<!ENTITY nbsp " ">]><svg data-noselect="" viewBox="290 260 350 130" width="240" ref="svg_canvas" height="80" preserveAspectRatio="none" version="1.1" xmlns="http://www.w3.org/2000/svg" style="background: #ffffff;"><g id="shape_brdJGdhLEi" ref="shape_brdJGdhLEi" key="shape_brdJGdhLEi" transform="translate(424.17505264282,265.15875244141) rotate(0,42.141658187202,60) scale(1,1)" style="cursor:move;display:inline;opacity:1;" filter="">
            <g style="display:inline"><rect fill="rgba(0,0,0,0)" width="104.28331637440337" height="140" x="-10" y="-10"></rect><svg version="1.1" id="图层_1" xmlns="http://www.w3.org/2000/svg" xmlns:xlink="http://www.w3.org/1999/xlink" x="0px" y="0px" width="84.28331637440337" height="120" viewBox="40.17637252807617 19.12739372253418 113.62442016601562 161.77496337890625" style="enable-background:new 0 0 200 200;" xml:space="preserve" preserveAspectRatio="none" data-parent="shape_brdJGdhLEi">
<style type="text/css">
	.st0{fill:#0464AC;}
</style>
<path class="" d="M147.2,19.3L75.1,37.9c-2.2,0.6-4,2.3-4.6,4.6l-8.2,30.9h8.1l6.5-24.6c0.5-1.8,1.7-3.3,3.3-3.8L131,33.9
	c2.8-0.9,5.4,2.1,4.7,5.3L104.4,163c-0.7,2.9-3.4,4.6-6,3.7l-45.1-11c-2.4-0.9-3.7-3.7-3.1-6.4l6.2-23.4h-8.2l-7.8,29.4
	c-0.9,3.3,1,6.7,4.2,7.8l60.5,17.5c3.5,1.1,7.3-0.9,8.2-4.4l40.3-150.4C154.7,21.8,151.1,18.3,147.2,19.3z" fill="#281670"></path>
</svg></g>
        </g><g id="shape_E29vr345r4" ref="shape_E29vr345r4" key="shape_E29vr345r4" transform="translate(287.79522705078,308.30206298828) rotate(0,172.39501953125,27.42919921875) scale(1,1)" style="cursor:move;display:inline;opacity:1;" filter="">
            <g style="display:inline"><svg xmlns="http://www.w3.org/2000/svg" version="1.1" xmlns:xlink="http://www.w3.org/1999/xlink" overflow="hidden" style="top:0; left: 0" width="189.521484375" height="54.8583984375" viewBox="0 0 184.521484375 54.8583984375" preserveAspectRatio="none" data-parent="shape_E29vr345r4"><rect fill="rgba(0,0,0,0)" width="189.521484375" height="54.8583984375"></rect> <rect opacity="0"></rect><g transform="translate(0 0)" data-width="179.521484375"><path fill="#281670" d="M16.41-34.66Q10.11-34.66 5.68-30.21L5.68-30.21Q1.23-25.76 1.23-19.48L1.23-19.48Q1.23-13.19 5.68-8.76L5.68-8.76Q10.11-4.31 16.41-4.31L16.41-4.31Q23.46-4.31 28.01-9.72L28.01-9.72L23.85-13.23Q20.94-9.74 16.41-9.74L16.41-9.74Q12.37-9.74 9.52-12.59L9.52-12.59Q6.67-15.44 6.67-19.48L6.67-19.48Q6.67-23.50 9.52-26.35L9.52-26.35Q12.37-29.20 16.41-29.20L16.41-29.20Q20.94-29.20 23.85-25.74L23.85-25.74L28.01-29.22Q23.46-34.66 16.41-34.66L16.41-34.66Z" transform="translate(5 35.19140625)" data-glyph-w="29.244140625"></path><path fill="#281670" d="M19.63-34.13L25.06-34.13L25.06-14.25Q25.06-10.13 21.70-7.22L21.70-7.22Q18.33-4.31 13.56-4.31L13.56-4.31Q8.80-4.31 5.41-7.22L5.41-7.22Q2.05-10.13 2.05-14.25L2.05-14.25L2.05-34.13L7.49-34.13L7.49-14.25Q7.49-12.39 9.27-11.07L9.27-11.07Q11.05-9.74 13.56-9.74L13.56-9.74Q16.08-9.74 17.84-11.07L17.84-11.07Q19.63-12.39 19.63-14.25L19.63-14.25L19.63-34.13Z" transform="translate(34.244140625 35.19140625)" data-glyph-w="27.111328125"></path><path fill="#281670" d="M13.27-4.31Q8.29-4.31 4.76-7.22L4.76-7.22Q1.23-10.13 1.23-14.25L1.23-14.25L6.67-14.25Q6.67-12.39 8.59-11.07L8.59-11.07Q10.54-9.74 13.27-9.74L13.27-9.74Q16.10-9.74 17.92-10.73L17.92-10.73Q19.85-11.77 19.85-13.51L19.85-13.51Q19.85-15.54 17.10-16.45L17.10-16.45Q16.73-16.57 11.07-17.70L11.07-17.70Q6.97-18.52 5.02-19.97L5.02-19.97Q2.28-22.00 2.28-25.96L2.28-25.96Q2.28-29.84 5.50-32.28L5.50-32.28Q8.59-34.66 13.27-34.66L13.27-34.66Q17.82-34.66 21.02-32.01L21.02-32.01Q24.24-29.37 24.24-25.63L24.24-25.63L18.81-25.63Q18.81-27.11 17.19-28.16L17.19-28.16Q15.57-29.20 13.27-29.20L13.27-29.20Q10.85-29.20 9.33-28.40L9.33-28.40Q7.71-27.52 7.71-25.96L7.71-25.96Q7.71-24.18 10.46-23.34L10.46-23.34Q11.42-23.03 13.27-22.70L13.27-22.70Q16.00-22.21 16.51-22.09L16.51-22.09Q20.55-21.25 22.54-19.69L22.54-19.69Q25.29-17.53 25.29-13.51L25.29-13.51Q25.29-9.43 21.76-6.83L21.76-6.83Q18.35-4.31 13.27-4.31L13.27-4.31Z" transform="translate(61.35546875 35.19140625)" data-glyph-w="26.5166015625"></path><path fill="#281670" d="M9.50-4.84L9.50-28.69L1.23-28.69L1.23-34.13L23.19-34.13L23.19-28.69L14.93-28.69L14.93-4.84L9.50-4.84Z" transform="translate(87.8720703125 35.19140625)" data-glyph-w="24.4248046875"></path><path fill="#281670" d="M16.41-29.20L16.41-29.20Q20.43-29.20 23.28-26.35L23.28-26.35Q26.13-23.50 26.13-19.48L26.13-19.48Q26.13-15.44 23.28-12.59L23.28-12.59Q20.43-9.74 16.41-9.74L16.41-9.74Q12.37-9.74 9.52-12.59L9.52-12.59Q6.67-15.44 6.67-19.48L6.67-19.48Q6.67-23.50 9.52-26.35L9.52-26.35Q12.37-29.20 16.41-29.20ZM16.41-34.66Q10.11-34.66 5.68-30.21L5.68-30.21Q1.23-25.76 1.23-19.48L1.23-19.48Q1.23-13.19 5.68-8.76L5.68-8.76Q10.11-4.31 16.41-4.31L16.41-4.31Q22.68-4.31 27.13-8.76L27.13-8.76Q31.56-13.19 31.56-19.48L31.56-19.48Q31.56-25.76 27.13-30.21L27.13-30.21Q22.68-34.66 16.41-34.66L16.41-34.66Z" transform="translate(112.296875 35.19140625)" data-glyph-w="32.7919921875"></path><path fill="#281670" d="M14.93-12.67L7.49-24.14L7.49-4.84L2.05-4.84L2.05-34.13L7.49-34.13L17.21-19.13L26.95-34.13L32.38-34.13L32.38-4.84L26.95-4.84L26.95-24.16L19.50-12.67L14.93-12.67Z" transform="translate(145.0888671875 35.19140625)" data-glyph-w="34.4326171875"></path></g></svg></g>
        </g><g id="shape_V7RgKq3Hmt" ref="shape_V7RgKq3Hmt" key="shape_V7RgKq3Hmt" transform="translate(495.17504882812,305.03985595703) rotate(0,89,24.69140625) scale(1,1)" style="cursor:move;display:inline;opacity:1;" filter="">
            <g style="display:inline"><svg xmlns="http://www.w3.org/2000/svg" version="1.1" xmlns:xlink="http://www.w3.org/1999/xlink" overflow="hidden" style="top:0; left: 0" width="141" height="49.3828125" viewBox="0 0 136 49.3828125" preserveAspectRatio="none" data-parent="shape_V7RgKq3Hmt"><rect fill="rgba(0,0,0,0)" width="141" height="49.3828125"></rect> <rect opacity="0"></rect><g transform="translate(0 0)" data-width="131"><path fill="#281670" d="M37.24 1.93L4.76 1.93L4.76-28.96L15.26-28.96Q16.65-31.58 17.23-33.96L17.23-33.96L22.56-33.22Q21.66-30.93 19.65-28.96L19.65-28.96L37.24-28.96L37.24 1.93ZM9.80-0.98L32.24-0.98L32.24-7.42L9.80-7.42L9.80-0.98ZM9.80-10.34L32.24-10.34L32.24-16.73L9.80-16.73L9.80-10.34ZM9.80-19.65L32.24-19.65L32.24-26.00L9.80-26.00L9.80-19.65Z" transform="translate(5 36.09375)" data-glyph-w="42"></path><path fill="#281670" d="M7.96-22.15L2.95-22.15L2.95-29.29L19.65-29.29Q18.38-31.05 17.06-32.48L17.06-32.48L19.56-33.96Q22.80-32.65 25.02-30.27L25.02-30.27L23.26-29.29L39.05-29.29L39.05-22.15L34.04-22.15L34.04-26.37L7.96-26.37L7.96-22.15ZM40.85-1.35L39.46 3.24Q24.08 3.24 19.07 2.13L19.07 2.13Q12.47 0.66 9.60-4.68L9.60-4.68Q7.01 0.49 2.95 3.65L2.95 3.65L1.15 1.52Q6.11-5.00 7.63-15.54L7.63-15.54L12.67-14.68Q12.39-11.85 11.07-8.16L11.07-8.16Q14.03-4.18 18.87-2.87L18.87-2.87L18.87-17.43L1.80-17.43L1.80-20.38L40.24-20.38L40.24-17.43L23.87-17.43L23.87-11.20L36.71-11.20L36.71-8.24L23.87-8.24L23.87-2.01Q29.45-1.35 40.85-1.35L40.85-1.35Z" transform="translate(47 36.09375)" data-glyph-w="42"></path><path fill="#281670" d="M32.89-30.76L37.57-28.96Q34.00-17.72 24.49-8.78L24.49-8.78Q31.66-3.69 40.85-0.66L40.85-0.66L37.78 3.65Q28.30 0.82 20.71-5.54L20.71-5.54Q12.71 0.66 2.58 3.65L2.58 3.65L1.15 1.39Q11.81-3.28 17.76-8.20L17.76-8.20Q8.53-17.23 4.76-28.46L4.76-28.46L6.97-29.65Q12.71-18.46 21.12-11.40L21.12-11.40Q27.73-18.29 32.89-30.76L32.89-30.76ZM20.30-22.07L25.10-23.91Q22.11-29.78 17.55-33.96L17.55-33.96L15.22-32.89Q18.46-27.36 20.30-22.07L20.30-22.07Z" transform="translate(89 36.09375)" data-glyph-w="42"></path></g></svg></g>
        </g></svg>